<?xml version="1.0" encoding="utf-8"?>
<!-- Generator: Adobe Illustrator 27.5.0, SVG Export Plug-In . SVG Version: 6.00 Build 0)  -->
<svg version="1.1" xmlns="http://www.w3.org/2000/svg" xmlns:xlink="http://www.w3.org/1999/xlink" x="0px" y="0px"
	 viewBox="0 0 1200 800" style="enable-background:new 0 0 1200 800; opacity:0.2" xml:space="preserve">
<g id="Backgrounds">
	<rect style="fill:#FFFFFF;" width="1200" height="800"/>
	<rect style="fill:none;" width="1200" height="800"/>
</g>
<g id="Graphic_Element">
	<g>
		<defs>
			<rect id="SVGID_1_" width="1200" height="800"/>
		</defs>
		<clipPath id="SVGID_00000077310847676815689420000002838325029728635309_">
			<use xlink:href="#SVGID_1_"  style="overflow:visible;"/>
		</clipPath>
		
			<linearGradient id="SVGID_00000132795566832501933910000007980286779817770668_" gradientUnits="userSpaceOnUse" x1="1726.3494" y1="-1206.0381" x2="1726.3494" y2="-753.0689" gradientTransform="matrix(0 1 1 0 963.8225 -1140.1592)">
			<stop  offset="0.2411" style="stop-color:#3e97cd"/>
			<stop  offset="1" style="stop-color:#1b5a81;stop-opacity:0.1"/>
		</linearGradient>
		
			<path style="opacity:0.9;clip-path:url(#SVGID_00000077310847676815689420000002838325029728635309_);fill:url(#SVGID_00000132795566832501933910000007980286779817770668_);" d="
			M164.92,421.271L164.92,421.271c-91.083-91.083-238.757-91.083-329.84,0l0,0c-91.083,91.083-91.083,238.757,0,329.839l0,0
			c91.083,91.083,238.757,91.083,329.839,0l0,0C256.003,660.027,256.003,512.353,164.92,421.271z"/>
		
			<linearGradient id="SVGID_00000120537100702562559890000000457445944004947351_" gradientUnits="userSpaceOnUse" x1="-1655.3759" y1="-974.3997" x2="-1655.3759" y2="-468.4405" gradientTransform="matrix(0 -1 -1 0 660.4089 -1199.7115)">
			<stop  offset="0.2411" style="stop-color:#3e97cd"/>
			<stop  offset="1" style="stop-color:#1b5a81;stop-opacity:0.1"/>
		</linearGradient>
		
			<path style="opacity:0.9;clip-path:url(#SVGID_00000077310847676815689420000002838325029728635309_);fill:url(#SVGID_00000120537100702562559890000000457445944004947351_);" d="
			M1180.045,639.877L1180.045,639.877c101.738,101.738,266.688,101.738,368.426,0l0,0c101.738-101.738,101.738-266.688,0-368.425
			l0,0c-101.738-101.738-266.687-101.738-368.425,0l0,0C1078.307,373.189,1078.307,538.139,1180.045,639.877z"/>
		
			<linearGradient id="SVGID_00000016073121329504202010000013864168854146471077_" gradientUnits="userSpaceOnUse" x1="2114.543" y1="-476.8557" x2="2114.543" y2="-23.8865" gradientTransform="matrix(0 1 1 0 963.8225 -1140.1592)">
			<stop  offset="0.2411" style="stop-color:#67AD93"/>
			<stop  offset="1" style="stop-color:#69AF97;stop-opacity:0.1"/>
		</linearGradient>
		
			<path style="opacity:0.54;clip-path:url(#SVGID_00000077310847676815689420000002838325029728635309_);fill:url(#SVGID_00000016073121329504202010000013864168854146471077_);" d="
			M894.102,809.464L894.102,809.464c-91.083-91.083-238.757-91.083-329.84,0l0,0c-91.083,91.083-91.083,238.757,0,329.839l0,0
			c91.083,91.083,238.757,91.083,329.839,0l0,0C985.185,1048.221,985.185,900.547,894.102,809.464z"/>
		
			<linearGradient id="SVGID_00000106841402497408608290000008376393780813680538_" gradientUnits="userSpaceOnUse" x1="1210.3195" y1="-1469.1328" x2="1210.3195" y2="-828.538" gradientTransform="matrix(0 1 1 0 963.8225 -1140.1592)">
			<stop  offset="0.2411" style="stop-color:#3e97cd"/>
			<stop  offset="1" style="stop-color:#1b5a81;stop-opacity:0.1"/>
		</linearGradient>
		
			<polygon style="opacity:0.8;clip-path:url(#SVGID_00000077310847676815689420000002838325029728635309_);fill:url(#SVGID_00000106841402497408608290000008376393780813680538_);" points="
			167.074,70.16 -162.766,-259.679 -492.606,70.16 -162.766,400 		"/>
		
			<linearGradient id="SVGID_00000133515245781181874090000010307061773890293898_" gradientUnits="userSpaceOnUse" x1="-1798.6294" y1="-1192.7792" x2="-1798.6294" y2="-575.1283" gradientTransform="matrix(0 -1 -1 0 500.6474 -1533.1707)">
			<stop  offset="0.2411" style="stop-color:#3e97cd"/>
			<stop  offset="1" style="stop-color:#1b5a81;stop-opacity:0.1"/>
		</linearGradient>
		
			<polygon style="opacity:0.46;clip-path:url(#SVGID_00000077310847676815689420000002838325029728635309_);fill:url(#SVGID_00000133515245781181874090000010307061773890293898_);" points="
			1045.125,265.459 1363.151,583.485 1681.177,265.459 1363.151,-52.567 		"/>
		
			<linearGradient id="SVGID_00000135652678601855929790000001589084149010418848_" gradientUnits="userSpaceOnUse" x1="-306.0174" y1="891.6105" x2="-306.0174" y2="1299.3025" gradientTransform="matrix(-1 0 0 1 560.2519 -1158.6248)">
			<stop  offset="0.2411" style="stop-color:#3e97cd"/>
			<stop  offset="1" style="stop-color:#1b5a81;stop-opacity:0.1"/>
		</linearGradient>
		
			<polygon style="opacity:0.8;clip-path:url(#SVGID_00000077310847676815689420000002838325029728635309_);fill:url(#SVGID_00000135652678601855929790000001589084149010418848_);" points="
			866.269,160.909 1076.188,-49.01 866.269,-258.929 656.35,-49.01 		"/>
		
			<linearGradient id="SVGID_00000008131418386158637410000004804606780397107084_" gradientUnits="userSpaceOnUse" x1="-616.5615" y1="1050.9717" x2="-616.5615" y2="1458.6637" gradientTransform="matrix(-1 0 0 1 560.2519 -1158.6248)">
			<stop  offset="0.2411" style="stop-color:#3e97cd"/>
			<stop  offset="1" style="stop-color:#1b5a81;stop-opacity:0.1"/>
		</linearGradient>
		
			<polygon style="opacity:0.8;clip-path:url(#SVGID_00000077310847676815689420000002838325029728635309_);fill:url(#SVGID_00000008131418386158637410000004804606780397107084_);" points="
			1176.813,320.271 1386.732,110.352 1176.813,-99.567 966.894,110.352 		"/>
		
			<linearGradient id="SVGID_00000121994611540412639740000004206270760101949870_" gradientUnits="userSpaceOnUse" x1="390.8419" y1="-3412.5571" x2="390.8419" y2="-2976.9858" gradientTransform="matrix(1 0 0 -1 0 -2297.7083)">
			<stop  offset="0.2411" style="stop-color:#3e97cd"/>
			<stop  offset="1" style="stop-color:#1b5a81;stop-opacity:0.1"/>
		</linearGradient>
		
			<polygon style="opacity:0.91;clip-path:url(#SVGID_00000077310847676815689420000002838325029728635309_);fill:url(#SVGID_00000121994611540412639740000004206270760101949870_);" points="
			390.842,657.662 166.568,881.936 390.842,1106.21 615.116,881.936 		"/>
		
			<linearGradient id="SVGID_00000182501853837008821900000015412859272373718414_" gradientUnits="userSpaceOnUse" x1="-172.6657" y1="-3152.4705" x2="432.6602" y2="-3152.4705" gradientTransform="matrix(1 0 0 -1 0 -2297.7083)">
			<stop  offset="0.2411" style="stop-color:#67AD93"/>
			<stop  offset="1" style="stop-color:#69AF97;stop-opacity:0.1"/>
		</linearGradient>
		
			<polygon style="opacity:0.74;clip-path:url(#SVGID_00000077310847676815689420000002838325029728635309_);fill:url(#SVGID_00000182501853837008821900000015412859272373718414_);" points="
			129.997,552.099 -172.666,854.762 129.997,1157.425 432.66,854.762 		"/>
		
			<linearGradient id="SVGID_00000147911949333424838900000008541356575657870489_" gradientUnits="userSpaceOnUse" x1="1761.7924" y1="-136.0797" x2="2218.1047" y2="-136.0797" gradientTransform="matrix(0 1 1 0 1253.2612 -2067.3813)">
			<stop  offset="0.2411" style="stop-color:#67AD93"/>
			<stop  offset="1" style="stop-color:#69AF97;stop-opacity:0.1"/>
		</linearGradient>
		
			<polygon style="opacity:0.54;clip-path:url(#SVGID_00000077310847676815689420000002838325029728635309_);fill:url(#SVGID_00000147911949333424838900000008541356575657870489_);" points="
			1345.338,-77.433 1117.182,-305.589 889.025,-77.433 1117.182,150.723 		"/>
		
			<linearGradient id="SVGID_00000103955847988980604030000009517349114572776592_" gradientUnits="userSpaceOnUse" x1="-356.1173" y1="-2540.3677" x2="249.2086" y2="-2540.3677" gradientTransform="matrix(1 0 0 -1 0 -2297.7083)">
			<stop  offset="0.2411" style="stop-color:#67AD93"/>
			<stop  offset="1" style="stop-color:#69AF97;stop-opacity:0.1"/>
		</linearGradient>
		
			<polygon style="opacity:0.25;clip-path:url(#SVGID_00000077310847676815689420000002838325029728635309_);fill:url(#SVGID_00000103955847988980604030000009517349114572776592_);" points="
			-53.454,-60.003 -356.117,242.66 -53.454,545.323 249.209,242.66 		"/>
		
			<linearGradient id="SVGID_00000099662140087630524050000007349083678238988678_" gradientUnits="userSpaceOnUse" x1="-356.1173" y1="-3085.1892" x2="249.2086" y2="-3085.1892" gradientTransform="matrix(1 0 0 -1 0 -2297.7083)">
			<stop  offset="0.2411" style="stop-color:#67AD93"/>
			<stop  offset="1" style="stop-color:#69AF97;stop-opacity:0.1"/>
		</linearGradient>
		
			<polygon style="opacity:0.54;clip-path:url(#SVGID_00000077310847676815689420000002838325029728635309_);fill:url(#SVGID_00000099662140087630524050000007349083678238988678_);" points="
			-53.454,484.818 -356.117,787.481 -53.454,1090.144 249.209,787.481 		"/>
	</g>
</g>
</svg>
